<svg height="510" width="720" xmlns="http://www.w3.org/2000/svg">
<rect height="510" fill="#555" width="720"></rect>
<text fill="#7f7" font-family="Courier New" font-size="12" xml:space="preserve">
<tspan x="10" y="26">21 megabytes installed</tspan>
<tspan x="10" y="42"></tspan>
<tspan x="10" y="58">node_modules</tspan>
<tspan x="10" y="74">├── UNMET PEER DEPENDENCY react@^0.14 || ~15.4.0</tspan>
<tspan x="10" y="90">├── UNMET PEER DEPENDENCY react-addons-css-transition-group@^0.14.0 || ~15.4.0</tspan>
<tspan x="10" y="106">├── UNMET PEER DEPENDENCY react-dom@^0.14.0 || ~15.4.0</tspan>
<tspan x="10" y="122">└─┬ react-toolbox@2.0.0-beta.8 </tspan>
<tspan x="10" y="138">  ├── classnames@2.2.5 </tspan>
<tspan x="10" y="154">  ├── core-js@2.4.1 </tspan>
<tspan x="10" y="170">  ├── ramda@0.23.0 </tspan>
<tspan x="10" y="186">  ├── UNMET PEER DEPENDENCY react@^15.4.2</tspan>
<tspan x="10" y="202">  ├─┬ react-addons-css-transition-group@15.5.2 </tspan>
<tspan x="10" y="218">  │ ├─┬ fbjs@0.8.12 </tspan>
<tspan x="10" y="234">  │ │ ├── core-js@1.2.7 </tspan>
<tspan x="10" y="250">  │ │ ├─┬ isomorphic-fetch@2.2.1 </tspan>
<tspan x="10" y="266">  │ │ │ ├─┬ node-fetch@1.6.3 </tspan>
<tspan x="10" y="282">  │ │ │ │ ├─┬ encoding@0.1.12 </tspan>
<tspan x="10" y="298">  │ │ │ │ │ └── iconv-lite@0.4.15 </tspan>
<tspan x="10" y="314">  │ │ │ │ └── is-stream@1.1.0 </tspan>
<tspan x="10" y="330">  │ │ │ └── whatwg-fetch@2.0.3 </tspan>
<tspan x="10" y="346">  │ │ ├─┬ loose-envify@1.3.1 </tspan>
<tspan x="10" y="362">  │ │ │ └── js-tokens@3.0.1 </tspan>
<tspan x="10" y="378">  │ │ ├─┬ promise@7.1.1 </tspan>
<tspan x="10" y="394">  │ │ │ └── asap@2.0.5 </tspan>
<tspan x="10" y="410">  │ │ ├── setimmediate@1.0.5 </tspan>
<tspan x="10" y="426">  │ │ └── ua-parser-js@0.7.12 </tspan>
<tspan x="10" y="442">  │ └── object-assign@4.1.1 </tspan>
<tspan x="10" y="458">  ├─┬ react-css-themr@1.7.2 </tspan>
<tspan x="10" y="474">  │ └── invariant@2.2.2 </tspan>
<tspan x="10" y="490">  └── react-style-proptype@2.0.2</tspan>
</text>
</svg>
